<?xml version="1.0" standalone="no"?><!DOCTYPE svg PUBLIC "-//W3C//DTD SVG 1.1//EN" "http://www.w3.org/Graphics/SVG/1.1/DTD/svg11.dtd"><svg width="100%" height="100%" viewBox="0 0 194 246" version="1.1" xmlns="http://www.w3.org/2000/svg" xmlns:xlink="http://www.w3.org/1999/xlink" xml:space="preserve" style="fill-rule:evenodd;clip-rule:evenodd;stroke-linejoin:round;stroke-miterlimit:1.41421;"><g><path d="M43.874,222.674c-0.271,-0.353 -0.634,-0.53 -0.993,-0.451c-0.784,0.173 -1.091,2.166 -1.434,2.587c-0.868,1.065 -3.774,3.805 -3.774,3.805c-1.103,1.057 -0.752,2.008 0,2.931c5.921,3.244 11.51,7.6 16.683,10.353c2.155,1.146 7.537,1.131 14.641,0.744c1.922,0.064 3.31,-0.723 3.64,-3.194c-0.359,-0.885 -0.996,-1.501 -1.864,-1.893c0,0 -5.066,0.02 -6.721,-0.709c-1.579,-0.695 -2.763,-2.17 -3.705,-3.616c-1.028,-1.58 -1.833,-5.645 -1.833,-5.645c-0.14,-0.705 -0.984,-0.684 -1.304,-0.264l-1.977,2.591c-4.087,0.88 -9.411,-4.706 -11.359,-7.239Z" style="fill:#202d3b;"/><path id="(Curve)" d="M57.002,210.867c-0.706,5.721 -0.942,11.497 0.585,17.139c0.4,1.475 -0.954,2.306 -1.953,2.366c-5.735,0.347 -7.684,-2.071 -11.841,-7.782c0.82,-0.127 2.119,-1.484 2.388,-2.639c0.65,-2.789 0,-12.165 0,-12.165l10.821,3.081Z" style="fill:#e39376;"/><path d="M49.148,104.803c-1.133,5.882 -1.666,12.421 0,16.971c1.16,3.169 2.866,5.079 4.769,10.684c0.645,1.897 0.968,9.557 1.075,14.661c0.116,5.559 3.218,15.841 2.553,17.92c-0.804,2.513 -3.212,6.74 -4.88,10.241c-3.174,6.661 -7.508,32.636 -7.508,32.636c1.695,2.238 4.017,3.26 6.54,3.893c3.171,0.796 6.307,0.694 8.844,-1.666c0.282,-6.198 2.34,-12.688 4.681,-18.592c2.342,-5.904 7.466,-13.543 9.367,-16.834c2.196,-3.801 2.582,-9.99 2.624,-10.452c0.209,-2.326 0.096,-8.583 0.685,-12.687c0.754,-5.26 0.92,-12.634 4.526,-19.12l-33.276,-27.655Z" style="fill:#026dbf;"/><path d="M145.126,170.877c2.357,2.601 6.876,3.295 9.44,5.073c2.237,1.551 5.948,5.598 5.948,5.598l12.525,-7.154l-1.911,-5.893c0,0 -6.965,0.379 -9.998,-0.561c-3.033,-0.94 -8.45,-5.64 -8.45,-5.64l-7.554,8.577" style="fill:#e39376;"/><g><path d="M73.892,67.285c-0.629,1.324 1.708,4.788 3.56,5.343c1.852,0.555 13.706,-9.101 21.226,-12.243c2.093,-0.874 14.234,-11.473 6.383,-9.732l-8.529,5.555c0,0 -0.592,-1.093 0,-2.341c0.259,-0.545 1.745,-0.541 2.724,-1.5c0.583,-0.571 0.325,-1.65 -0.578,-1.714c-2.723,-0.191 -5.792,1.337 -6.373,3.85c-0.222,0.956 -0.258,2.169 -1.263,3.548c-0.394,0.542 -2.469,2.193 -4.93,3.409c-4.943,2.444 -11.8,4.94 -12.22,5.825Z" style="fill:#e39376;"/><path d="M112.444,44.608c0.261,-0.045 1.384,1.017 1.176,1.585c-0.072,0.198 -16.953,12.015 -17.231,11.992c-0.517,-0.044 -1.31,-1.223 -1.022,-1.664c0.028,-0.043 17.015,-11.903 17.077,-11.913Z" style="fill:#1a2431;"/></g><path d="M160.379,180.135c-0.476,0.259 -1.02,0.605 -1.172,1.125c-0.43,1.458 0.331,3.089 1.172,4.324c0.964,1.417 3.147,3.639 4.615,4.177c1.344,0.494 3.098,-0.019 4.189,-0.945c1.763,-1.496 4.049,-5.533 6.386,-8.029c3.921,-4.189 15.77,-12.155 17.137,-17.102c0.381,-1.378 -0.661,-3.081 -1.486,-3.685c-0.785,-0.575 -1.681,-0.965 -3.14,-0.344c-0.987,0.42 -2.396,3.243 -4.326,4.029c-2.844,1.157 -9.682,3.018 -12.195,3.489c-2.009,0.376 -2.399,1.157 -1.434,2.37c0.806,1.015 1.181,2.499 0.764,3.68c-0.422,1.192 -1.962,2.595 -3.294,3.471c-1.752,1.152 -5.818,2.679 -7.216,3.44Z" style="fill:#202d3b;"/><path d="M80.682,84.975c0.501,5.564 1.725,12.262 2.58,15.34c2.23,8.036 7.575,10.528 12.666,14.389c6.117,4.638 18.458,11.553 23.788,17.906c14.158,16.877 33.509,29.432 33.509,29.432c1.518,1.963 -7.795,10.67 -8.71,13.358c-0.608,1.789 -3.672,-1.251 -5.083,-2.508c-8.971,-7.991 -15.634,-11.657 -23.68,-17.161c-8.384,-5.736 -17.832,-12.917 -26.62,-17.25c-8.232,-4.058 -18.985,-4.987 -26.108,-8.745c-8.065,-4.255 -13.427,-11.824 -13.734,-18.587c-0.319,-7.019 0,-21.275 0,-21.275l16.986,-11.387l14.406,6.488Z" style="fill:#0090ff;"/><path d="M46.555,90.877c0.328,0.876 1.467,1.492 2.666,0.879c1.332,-1.817 2.984,-3.036 5.022,-3.535c15.653,-3.831 18.132,-1.525 25.376,-2.134c3.722,-0.313 5.291,-1.791 3.233,-5.22c-0.979,-1.632 -2.518,-3.98 -3.233,-6.197c-1.125,-3.489 -1.668,-10.036 -3.518,-14.734c-2.708,-6.88 -6.676,-10.649 -9.235,-13.668c-1.63,-1.923 -4.211,-3.565 -6.118,-4.444c-1.63,-0.751 -5.338,-1.406 -5.338,-1.406c-2.043,-0.801 -6.022,-0.767 -8.143,0c-2.353,0.851 -4.87,3.56 -6.141,5.85c-2.966,5.344 -5.23,20.954 -6.101,25.346c-0.087,0.436 0.873,1.008 0.873,1.008l8.405,9.412c0,0 -0.495,2.623 0.457,4.053c1.996,3 1.254,3.347 1.795,4.79Z" style="fill:#202d3b;"/><path d="M46.786,75.962c2.912,-0.36 7.254,-2.495 7.607,-4.141c0.172,-0.803 -0.52,-2.159 -3.855,-3.777c-4.072,-1.976 -12.104,-2.549 -14.679,2.359l10.927,5.559Z" style="fill:#000;fill-opacity:0.602667;"/><path d="M35.852,73.128c-0.7,4.524 -2.433,7.081 -4.065,9.829l-14.566,29.15c-1.214,2.229 -2.64,4.126 -4.652,5.096c-4.389,2.265 -8.823,4.488 -12.025,7.857c-0.752,1.636 1.909,4.317 3.637,4.309c2.599,-0.013 6.992,-2.757 11.045,-5.937c-0.094,1.834 -0.765,3.519 -1.584,5.307c-0.242,0.53 0.769,1.279 1.584,0.63c2.036,-1.881 4.201,-4.476 5.013,-7.088c0.835,-2.684 0.684,-6.892 1.928,-8.658c4.275,-8.136 14.164,-17.683 22.129,-31.401c2.281,-3.929 3.517,-7.879 3.605,-11.852c-0.774,-2.461 -10.161,-3.206 -12.049,0.396l0,2.362Z" style="fill:#e39376;"/><path d="M71.279,26.758c-0.982,1.976 -5.962,1.115 -6.953,3.522c-1.181,2.866 -0.953,13.365 -0.953,13.365l-19.135,-1.434c2.908,-2.461 5.288,-5.026 5.122,-8.094l-1.459,-18.387l7.464,-12.365c4.027,2.386 4.971,3.863 6.332,5.463c2.427,1.601 5.149,1.886 7.736,3.463c0.4,0.698 -0.008,1.505 -0.523,2.835c-0.044,0.649 -0.06,1.308 0,1.998c0.87,1.827 1.192,2.392 1.943,4.128c0.819,0.921 1.171,4.009 0.426,5.506Z" style="fill:#e39376;"/><path d="M68.751,17.196c0.208,-0.234 0.714,-0.022 0.974,0.476c0.173,0.334 0.029,0.728 0.256,1.215c0.218,0.47 0.55,0.62 0.69,1.015c0.119,0.334 0.36,1.203 0.133,1.326c-0.226,0.123 -0.957,-0.566 -1.287,-0.744c-0.284,-0.152 -0.186,-0.253 -0.917,-0.327c-0.51,-0.051 -2.037,0.257 -2.121,0c-0.043,-0.129 1.604,-1.141 1.901,-1.63c0.209,-0.341 0.164,-1.097 0.371,-1.331Z" style="fill:#ba2c1c;"/><path d="M52.436,2.898c2.131,-0.116 4.079,0.328 4.229,1.549c0.137,1.108 -1.429,3.007 -1.715,4.188c-0.227,0.939 -0.458,2.048 0,2.899c0.65,1.207 3.88,4.823 3.88,4.823c1.287,1.706 1.392,4.415 0.562,5.135c-0.653,0.566 -2.327,0.009 -3.37,-0.776c-0.948,-0.714 -2.155,-0.994 -3.586,-0.76c-1.31,0.215 -1.456,2.036 -1.472,2.782c-0.016,0.728 0.129,1.385 1.376,1.694c0.657,0.163 2.337,-1.239 3.039,0c0.937,1.656 -1.263,2.399 -1.09,3.486c0.181,1.144 1.709,2.41 1.09,3.944c-0.732,1.813 -3.869,2.163 -6.749,2.305c-3.712,0.183 -11.554,-2.66 -12.406,-6.249c-0.755,-3.177 -0.486,-8.388 0.677,-12.527c-0.841,1.394 -2.929,2.377 -4.384,2.03c-2.917,-0.697 -3.907,-3.062 -3.929,-5.407c-0.02,-2.083 1.632,-5.19 3.444,-7.087c4.428,-4.635 9.614,0.697 10.994,0.808c3.244,0.262 7.139,-2.714 9.41,-2.837Z" style="fill:#2c1f17;"/><path d="M57.659,15.034c0,0 3.415,-2.863 3.52,-2.737c1.428,1.721 3.107,2.587 3.748,1.932c0.641,-0.655 0.002,-2.585 -1.426,-4.306c-1.428,-1.722 -3.117,-2.597 -3.749,-1.933c-0.636,0.669 0.043,2.228 0.855,3.577l-3.465,2.87l0.517,0.597Z" style="fill:#1a2431;"/></g></svg>